<svg width="165" height="159" viewBox="0 0 165 159" fill="none" xmlns="http://www.w3.org/2000/svg">
<rect width="165" height="159" fill="#7FCD8E"/>
<path d="M57.291 103L48.5312 72.1504H48.2676C48.3457 72.9512 48.4238 74.0352 48.502 75.4023C48.5996 76.7695 48.6875 78.2441 48.7656 79.8262C48.8438 81.4082 48.8828 82.9316 48.8828 84.3965V103H38.6289V60.168H54.0391L62.9746 90.5781H63.209L71.9688 60.168H87.4082V103H76.7734V84.2207C76.7734 82.873 76.793 81.4277 76.832 79.8848C76.8906 78.3223 76.9492 76.8574 77.0078 75.4902C77.0859 74.1035 77.1543 73.0098 77.2129 72.209H76.9492L68.3066 103H57.291ZM96.6367 103V60.168H108.209V93.6543H124.703V103H96.6367Z" fill="black"/>
</svg>
