<svg width="264" height="151" viewBox="0 0 264 151" fill="none" xmlns="http://www.w3.org/2000/svg">
<path d="M191.221 26.4549C192.745 24.9312 194.585 23.7606 196.611 23.0257C198.637 22.2908 200.799 22.0096 202.946 22.2019C205.093 22.3942 207.171 23.0554 209.034 24.1387C210.897 25.222 212.5 26.701 213.729 28.4714C216.565 26.4917 220.007 25.5733 223.452 25.8772C226.897 26.1811 230.126 27.6878 232.571 30.1334C235.017 32.5789 236.523 35.8072 236.827 39.2524C237.131 42.6975 236.213 46.1397 234.233 48.9756C236.003 50.2051 237.482 51.8082 238.564 53.6716C239.647 55.535 240.308 57.6133 240.499 59.7599C240.691 61.9065 240.409 64.069 239.674 66.0947C238.939 68.1205 237.767 69.9602 236.243 71.4839L233.66 74.0739C235.392 75.3188 236.834 76.9256 237.884 78.7829C238.934 80.6402 239.567 82.7037 239.74 84.8302C239.913 86.9568 239.622 89.0955 238.886 91.0982C238.15 93.1008 236.987 94.9195 235.479 96.4281L208.839 123.068C200.524 131.383 189.246 136.054 177.487 136.054C165.728 136.054 154.451 131.383 146.136 123.068L140.925 117.863C133.998 110.935 129.56 101.906 128.306 92.1888C127.052 82.4714 129.052 72.6123 133.994 64.1518L147.721 40.6444C149.106 38.2738 151.194 36.3928 153.696 35.2619C156.198 34.131 158.99 33.8063 161.685 34.3327C164.379 34.8592 166.843 36.2108 168.736 38.2002C170.628 40.1896 171.855 42.7183 172.246 45.4359L191.221 26.4549ZM227.53 62.7643C227.958 62.312 228.193 61.7105 228.185 61.0875C228.177 60.4646 227.926 59.8694 227.486 59.4285C227.046 58.9876 226.451 58.7357 225.828 58.7264C225.206 58.7171 224.604 58.9512 224.151 59.3788L191.85 91.6798L183.124 82.9601L223.848 42.2354C224.259 41.7801 224.48 41.1843 224.464 40.571C224.449 39.9578 224.198 39.374 223.764 38.9402C223.33 38.5065 222.747 38.2559 222.133 38.2402C221.52 38.2246 220.924 38.445 220.469 38.8561L179.744 79.5808L171.025 70.8611L203.32 38.5663C203.747 38.1132 203.981 37.5112 203.972 36.8883C203.963 36.2654 203.711 35.6707 203.27 35.2306C202.829 34.7904 202.234 34.5397 201.611 34.5315C200.988 34.5234 200.386 34.7585 199.934 35.1869L166.215 68.9063C165.254 69.8682 164.003 70.486 162.655 70.6639C161.307 70.8418 159.938 70.5698 158.761 69.8901C157.584 69.2104 156.663 68.161 156.144 66.9049C155.624 65.6487 155.533 64.2561 155.886 62.9431L160.005 47.5573C160.057 47.3487 160.033 47.1282 159.937 46.9357C159.841 46.7433 159.679 46.5916 159.481 46.5081C159.283 46.4246 159.061 46.4149 158.856 46.4807C158.652 46.5464 158.477 46.6833 158.365 46.8666L144.638 70.3801C141.073 76.4869 139.631 83.6023 140.537 90.6151C141.443 97.6279 144.645 104.143 149.645 109.144L154.85 114.355C160.851 120.355 168.991 123.726 177.478 123.726C185.965 123.726 194.105 120.355 200.107 114.355L226.747 87.7146C227.166 87.2635 227.394 86.6675 227.383 86.0518C227.372 85.4361 227.123 84.8486 226.688 84.4128C226.253 83.9769 225.666 83.7266 225.05 83.7145C224.434 83.7023 223.838 83.9293 223.386 84.3476L203.949 103.785L195.229 95.0591L227.53 62.7643Z" fill="#A6A6A6"/>
<path d="M73.9998 21.5C66.7115 21.5 59.4945 22.9355 52.7609 25.7246C46.0273 28.5138 39.9091 32.6019 34.7554 37.7555C29.6018 42.9092 25.5137 49.0275 22.7245 55.761C19.9354 62.4946 18.4998 69.7116 18.4998 77C18.4998 84.2883 19.9354 91.5053 22.7245 98.2389C25.5137 104.972 29.6018 111.091 34.7554 116.244C39.9091 121.398 46.0273 125.486 52.7609 128.275C59.4945 131.064 66.7115 132.5 73.9998 132.5C88.7194 132.5 102.836 126.653 113.244 116.244C123.653 105.836 129.5 91.7195 129.5 77C129.5 62.2804 123.653 48.1638 113.244 37.7555C102.836 27.3473 88.7194 21.5 73.9998 21.5ZM6.1665 77C6.1665 39.5375 36.5373 9.16663 73.9998 9.16663C111.462 9.16663 141.833 39.5375 141.833 77C141.833 114.462 111.462 144.833 73.9998 144.833C36.5373 144.833 6.1665 114.462 6.1665 77ZM107.066 57.7661L95.8298 64.087L107.3 72.6833L99.8998 82.55L80.1665 67.75V58.7466L101.016 47.0176L107.066 57.7661ZM55.4998 52.3333V77H43.1665V52.3333H55.4998ZM54.8832 87.0763L57.9665 92.4105C61.1855 97.9666 67.1548 101.667 73.9998 101.667C80.8448 101.667 86.8265 97.9605 90.0332 92.4166L93.1165 87.0763L103.791 93.2491L100.708 98.5895C98.0012 103.277 94.1079 107.17 89.4194 109.875C84.731 112.58 79.4128 114.003 73.9998 114C68.5873 114.001 63.27 112.577 58.5827 109.871C53.8953 107.164 50.0033 103.271 47.2982 98.5833L44.2087 93.2491L54.8832 87.0763Z" fill="#A6A6A6"/>
</svg>
