<svg width="35" height="37" viewBox="0 0 35 37" fill="none" xmlns="http://www.w3.org/2000/svg">
<path d="M28.5833 32.375L19.3958 22.6625C18.6667 23.2792 17.8281 23.7674 16.8802 24.1271C15.9323 24.4868 14.9236 24.6667 13.8542 24.6667C11.2049 24.6667 8.96292 23.6964 7.12833 21.756C5.29375 19.8156 4.37597 17.4455 4.375 14.6458C4.37403 11.8462 5.29181 9.47611 7.12833 7.53567C8.96486 5.59522 11.2068 4.625 13.8542 4.625C16.5015 4.625 18.744 5.59522 20.5815 7.53567C22.419 9.47611 23.3363 11.8462 23.3333 14.6458C23.3333 15.7764 23.1632 16.8427 22.8229 17.8448C22.4826 18.8469 22.0208 19.7333 21.4375 20.5042L30.625 30.2167L28.5833 32.375ZM13.8542 21.5833C15.6771 21.5833 17.2268 20.9091 18.5033 19.5607C19.7799 18.2122 20.4176 16.5739 20.4167 14.6458C20.4157 12.7177 19.7779 11.08 18.5033 9.73254C17.2288 8.38513 15.679 7.71039 13.8542 7.70833C12.0293 7.70628 10.4801 8.38101 9.20646 9.73254C7.93285 11.0841 7.29458 12.7218 7.29167 14.6458C7.28875 16.5698 7.92702 18.2081 9.20646 19.5607C10.4859 20.9132 12.0351 21.5874 13.8542 21.5833Z" fill="#999999"/>
</svg>
